<mxfile host="Electron" agent="Mozilla/5.0 (Windows NT 10.0; Win64; x64) AppleWebKit/537.36 (KHTML, like Gecko) draw.io/26.0.15 Chrome/132.0.6834.196 Electron/34.2.0 Safari/537.36" version="26.0.15">
  <diagram name="Page-1" id="7R1fTQHV3cGbk657_ZNO">
    <mxGraphModel dx="794" dy="519" grid="1" gridSize="10" guides="1" tooltips="1" connect="1" arrows="1" fold="1" page="1" pageScale="1" pageWidth="827" pageHeight="1169" math="0" shadow="0">
      <root>
        <mxCell id="0" />
        <mxCell id="1" parent="0" />
        <mxCell id="higMzoDfwa9QNw0H5U2N-1" value="27/03/2025" style="shape=step;perimeter=stepPerimeter;whiteSpace=wrap;html=1;fixedSize=1;fillColor=#d80073;fontColor=#ffffff;strokeColor=#A50040;" parent="1" vertex="1">
          <mxGeometry x="630" y="130" width="140" height="60" as="geometry" />
        </mxCell>
        <mxCell id="higMzoDfwa9QNw0H5U2N-8" value="13/02/2025" style="shape=step;perimeter=stepPerimeter;whiteSpace=wrap;html=1;fixedSize=1;fillColor=#1ba1e2;strokeColor=#006EAF;fontColor=#ffffff;" parent="1" vertex="1">
          <mxGeometry x="180" y="130" width="140" height="60" as="geometry" />
        </mxCell>
        <mxCell id="higMzoDfwa9QNw0H5U2N-9" value="27/02/2025" style="shape=step;perimeter=stepPerimeter;whiteSpace=wrap;html=1;fixedSize=1;fillColor=#0050ef;fontColor=#ffffff;strokeColor=#001DBC;" parent="1" vertex="1">
          <mxGeometry x="330" y="130" width="140" height="60" as="geometry" />
        </mxCell>
        <mxCell id="higMzoDfwa9QNw0H5U2N-10" value="13/03/2025" style="shape=step;perimeter=stepPerimeter;whiteSpace=wrap;html=1;fixedSize=1;fillColor=#6a00ff;fontColor=#ffffff;strokeColor=#3700CC;" parent="1" vertex="1">
          <mxGeometry x="480" y="130" width="140" height="60" as="geometry" />
        </mxCell>
        <mxCell id="higMzoDfwa9QNw0H5U2N-13" value="INTERFACE ET ALGORITHME" style="rounded=1;whiteSpace=wrap;html=1;rotation=-90;fillColor=#e3c800;fontColor=#000000;strokeColor=#B09500;" parent="1" vertex="1">
          <mxGeometry x="65" y="240" width="130" height="60" as="geometry" />
        </mxCell>
        <mxCell id="higMzoDfwa9QNw0H5U2N-14" value="DATA ANALYSE" style="rounded=1;whiteSpace=wrap;html=1;rotation=-90;fillColor=#f0a30a;fontColor=#000000;strokeColor=#BD7000;" parent="1" vertex="1">
          <mxGeometry x="65" y="380" width="130" height="60" as="geometry" />
        </mxCell>
        <mxCell id="higMzoDfwa9QNw0H5U2N-15" value="Le client peut avoir accès à la carte du restaurant et cela est personnalisé suivant son choix (repas ou gouter&amp;nbsp;" style="rounded=1;whiteSpace=wrap;html=1;" parent="1" vertex="1">
          <mxGeometry x="185" y="205" width="130" height="130" as="geometry" />
        </mxCell>
        <mxCell id="higMzoDfwa9QNw0H5U2N-16" value="Le client peur rentrer ses allergies et selon sa réponse les plats vont apparaitre ou non&amp;nbsp;" style="rounded=1;whiteSpace=wrap;html=1;" parent="1" vertex="1">
          <mxGeometry x="335" y="205" width="130" height="130" as="geometry" />
        </mxCell>
        <mxCell id="higMzoDfwa9QNw0H5U2N-17" value="&#xa;&lt;br style=&quot;forced-color-adjust: none; color: rgb(0, 0, 0); font-family: Helvetica; font-size: 12px; font-style: normal; font-variant-ligatures: normal; font-variant-caps: normal; font-weight: 400; letter-spacing: normal; orphans: 2; text-align: center; text-indent: 0px; text-transform: none; widows: 2; word-spacing: 0px; -webkit-text-stroke-width: 0px; white-space: normal; background-color: rgb(251, 251, 251); text-decoration-thickness: initial; text-decoration-style: initial; text-decoration-color: initial;&quot;&gt;&lt;span style=&quot;forced-color-adjust: none; color: rgb(0, 0, 0); font-family: Helvetica; font-size: 12px; font-style: normal; font-variant-ligatures: normal; font-variant-caps: normal; font-weight: 400; letter-spacing: normal; orphans: 2; text-align: center; text-indent: 0px; text-transform: none; widows: 2; word-spacing: 0px; -webkit-text-stroke-width: 0px; white-space: normal; text-decoration-thickness: initial; text-decoration-style: initial; text-decoration-color: initial; float: none; background-color: rgb(251, 251, 251); display: inline !important;&quot; data-mx-given-colors=&quot;{&amp;quot;color&amp;quot;:&amp;quot;rgb(0, 0, 0)&amp;quot;,&amp;quot;background-color&amp;quot;:&amp;quot;rgb(251, 251, 251)&amp;quot;}&quot;&gt;Possibilité pour le client d&#39;avoir accès aux ingrédients des plats&lt;/span&gt;&#xa;&#xa;" style="rounded=1;whiteSpace=wrap;html=1;" parent="1" vertex="1">
          <mxGeometry x="485" y="205" width="130" height="130" as="geometry" />
        </mxCell>
        <mxCell id="higMzoDfwa9QNw0H5U2N-18" value="Gestion des mauvais inputs&amp;nbsp; et possibilité d&#39;enlever des&lt;span style=&quot;background-color: transparent; color: light-dark(rgb(0, 0, 0), rgb(255, 255, 255));&quot;&gt;&amp;nbsp;ingrediens&amp;nbsp;&lt;/span&gt;" style="rounded=1;whiteSpace=wrap;html=1;" parent="1" vertex="1">
          <mxGeometry x="635" y="205" width="130" height="130" as="geometry" />
        </mxCell>
        <mxCell id="higMzoDfwa9QNw0H5U2N-19" value="Analyse sur equilibre nutritionnel des plats" style="rounded=1;whiteSpace=wrap;html=1;" parent="1" vertex="1">
          <mxGeometry x="485" y="345" width="130" height="130" as="geometry" />
        </mxCell>
        <mxCell id="higMzoDfwa9QNw0H5U2N-20" value="Nettoyage des données&lt;div&gt;et presentation des graphiques des allergènes&amp;nbsp;&lt;/div&gt;" style="rounded=1;whiteSpace=wrap;html=1;" parent="1" vertex="1">
          <mxGeometry x="335" y="345" width="130" height="130" as="geometry" />
        </mxCell>
        <mxCell id="higMzoDfwa9QNw0H5U2N-21" value="Explication des données" style="rounded=1;whiteSpace=wrap;html=1;" parent="1" vertex="1">
          <mxGeometry x="186" y="345" width="130" height="130" as="geometry" />
        </mxCell>
        <mxCell id="higMzoDfwa9QNw0H5U2N-22" value="Analyse sur la repartition des labels alimentaires" style="rounded=1;whiteSpace=wrap;html=1;" parent="1" vertex="1">
          <mxGeometry x="635" y="345" width="130" height="130" as="geometry" />
        </mxCell>
        <mxCell id="higMzoDfwa9QNw0H5U2N-23" value="&lt;font style=&quot;font-size: 24px;&quot;&gt;INTERFACE CLIENT / RESTAURATEUR&lt;/font&gt;" style="rounded=1;whiteSpace=wrap;html=1;fillColor=#b1ddf0;strokeColor=#10739e;" parent="1" vertex="1">
          <mxGeometry x="100" y="60" width="670" height="60" as="geometry" />
        </mxCell>
      </root>
    </mxGraphModel>
  </diagram>
</mxfile>
